<?xml version="1.0" encoding="iso-8859-1"?>
<!-- Generator: Adobe Illustrator 19.0.1, SVG Export Plug-In . SVG Version: 6.00 Build 0)  -->
<svg version="1.1" xmlns="http://www.w3.org/2000/svg" xmlns:xlink="http://www.w3.org/1999/xlink" x="0px" y="0px"
	 viewBox="0 0 128 128" style="enable-background:new 0 0 128 128;" xml:space="preserve">
<g id="_x33_">
	<path id="icon_2_" style="fill:#262626;" d="M64,33.276c-9.288,0-20.644,4.89-20.644,8.254v6.187h41.288V41.53
		C84.644,38.166,73.288,33.276,64,33.276z M64,110.174c-9.288,0-20.644,4.907-20.644,8.254v6.203c0,0,33.034,2.921,41.288,0v-6.203
		C84.644,115.081,73.288,110.174,64,110.174z M20.644,110.174c-9.288,0-20.644,4.907-20.644,8.254v6.203h41.288v-6.203
		C41.288,115.081,29.932,110.174,20.644,110.174z M107.356,110.174c-9.288,0-20.644,4.907-20.644,8.254v6.203
		c8.254,2.921,33.034,2.921,41.288,0v-6.203C128,115.081,116.644,110.174,107.356,110.174z M75.963,12.484v5.448
		c0,6.121-5.481,11.307-11.963,11.307s-11.963-5.186-11.963-11.307v-5.448c0-6.138,5.481-11.307,11.963-11.307
		S75.963,6.347,75.963,12.484z M107.75,58.17v12.784h-4.923v-7.86H66.462v7.86h-4.923v-7.86H23.106v7.86h-4.923V58.17h43.356v-5.809
		h4.923v5.809H107.75z M119.319,88.874v5.448c0,6.121-5.481,11.29-11.963,11.29c-6.482,0-11.963-5.169-11.963-11.29v-5.448
		c0-6.137,5.481-11.307,11.963-11.307C113.838,77.567,119.319,82.736,119.319,88.874z M75.963,88.874v5.448
		c0,6.121-5.481,11.29-11.963,11.29s-11.963-5.169-11.963-11.29v-5.448c0-6.137,5.481-11.307,11.963-11.307
		S75.963,82.736,75.963,88.874z M32.607,88.874v5.448c0,6.121-5.481,11.29-11.963,11.29s-11.963-5.169-11.963-11.29v-5.448
		c0-6.137,5.481-11.307,11.963-11.307S32.607,82.736,32.607,88.874z"/>
</g>
<g id="Layer_1">
</g>
</svg>
